<svg version="1.2" xmlns="http://www.w3.org/2000/svg" viewBox="0 0 941 205" width="941" height="205">
	<title>Logo</title>
	<style>
		.s0 { fill: #000000 } 
	</style>
	<path id="Forme 4 copy" class="s0" d="m939.8 6l-58.6 97l7.3-69.4l-60.6-28.9l-0.1-0.6l113.1-0.1z" />
	<path id="PUSH" fill="#000000" aria-label="PUSH"  d="m90.59 4.3h-89.92v196.7h55.64v-51.42h34.28c53.67 0 87.39-27.82 87.39-72.5c0-44.96-33.72-72.78-87.39-72.78zm-3.37 101.44h-30.91v-57.6h30.91c23.04 0 34.56 10.67 34.56 28.94c0 17.98-11.52 28.66-34.56 28.66zm206.53 99.19c58.17 0 92.45-32.87 92.45-91.6v-109.03h-54.79v107.34c0 33.72-14.05 47.21-37.09 47.21c-23.33 0-37.38-13.49-37.38-47.21v-107.34h-55.64v109.03c0 58.73 34.29 91.6 92.45 91.6zm199.23 0c58.45 0 87.11-29.22 87.11-63.5c0-72.5-111.55-50.02-111.55-80.09c0-9.83 8.43-17.7 31.75-17.7c17.14 0 35.69 5.06 54.51 15.17l17.14-41.3c-19.39-11.24-45.8-17.14-71.37-17.14c-58.45 0-87.11 28.66-87.11 63.78c0 73.06 111.84 50.3 111.84 81.49c0 9.56-8.99 16.02-32.04 16.02c-22.76 0-47.49-7.87-64.91-19.39l-18.26 41.03c18.54 12.92 50.58 21.63 82.89 21.63zm244.19-200.63v73.9h-75.87v-73.9h-55.64v196.7h55.64v-76.71h75.87v76.71h55.64v-196.7z" />
</svg>